# Export of Tutorial - Elevator
# from Aaro4130 OBJ Exporter v2.0
mtllib Elevator.mtl
g UP
v -44.256 -32.0534 -78.51501
v -44.309 -32.0534 -78.51501
v -44.256 -31.9034 -78.59
v -44.309 -31.9034 -78.59
v -44.309 -32.0534 -78.51501
v -44.309 -32.0534 -78.66501
v -44.309 -31.9034 -78.59
v -44.309 -32.0534 -78.66501
v -44.256 -32.0534 -78.66501
v -44.309 -31.9034 -78.59
v -44.256 -31.9034 -78.59
v -44.256 -32.0534 -78.66501
v -44.256 -32.0534 -78.51501
v -44.256 -31.9034 -78.59
v -44.256 -32.0534 -78.66501
v -44.309 -32.0534 -78.66501
v -44.256 -32.0534 -78.51501
v -44.309 -32.0534 -78.51501
vn 0 0.2581996 0.5163975
vn -5.595643E-06 0.2582012 0.5163966
vn -5.595643E-06 0.2582012 0.5163966
vn -1.119135E-05 0.2582028 0.5163959
vn -0.5773503 0 0
vn -0.5773503 0 0
vn -0.5773503 0 0
vn 1.480862E-05 0.2582055 -0.5163944
vn 1.899379E-06 0.2582019 -0.5163962
vn 1.899379E-06 0.2582019 -0.5163962
vn -1.100975E-05 0.2581982 -0.5163981
vn 0.5773503 0 0
vn 0.5773503 0 0
vn 0.5773503 0 0
vn 0 -0.5773503 0
vn 0 -0.5773503 0
vn 0 -0.5773503 0
vn 0 -0.5773503 0
vt 0.0530014 -7.450581E-09
vt 0 -7.450581E-09
vt 0.0530014 0.1677052
vt 0 0.1677032
vt 0.1500015 0
vt 0 0
vt 0.07500127 0.1499977
vt 0.05300356 0
vt 2.151355E-06 0
vt 0.0530014 0.1677036
vt 0 0.167705
vt 0.15 0
vt 0 0
vt 0.07500025 0.15
vt 0.0530014 1.519918E-06
vt 0 0
vt 0.0530014 0.1500015
vt 0 0.1500015
usemtl ButtonRed
f 3/3/3 2/2/2 1/1/1
f 3/3/3 4/4/4 2/2/2
f 7/7/7 6/6/6 5/5/5
f 10/10/10 9/9/9 8/8/8
f 10/10/10 11/11/11 9/9/9
f 14/14/14 13/13/13 12/12/12
f 17/17/17 16/16/16 15/15/15
f 17/17/17 18/18/18 16/16/16
g Panel
v -44.296 -32.50951 -78.3395
v -44.344 -32.50951 -78.3395
v -44.296 -31.81051 -78.3395
v -44.344 -31.8105 -78.3395
v -44.344 -32.50951 -78.3395
v -44.344 -32.50951 -78.8365
v -44.344 -31.8105 -78.3395
v -44.344 -31.8105 -78.8365
v -44.344 -32.50951 -78.8365
v -44.296 -32.50951 -78.8365
v -44.344 -31.8105 -78.8365
v -44.296 -31.8105 -78.8365
v -44.296 -32.50951 -78.8365
v -44.296 -32.50951 -78.3395
v -44.296 -31.8105 -78.8365
v -44.296 -31.81051 -78.3395
v -44.296 -31.81051 -78.3395
v -44.344 -31.8105 -78.3395
v -44.296 -31.8105 -78.8365
v -44.344 -31.8105 -78.8365
v -44.296 -32.50951 -78.8365
v -44.344 -32.50951 -78.8365
v -44.296 -32.50951 -78.3395
v -44.344 -32.50951 -78.3395
vn 0 0 0.5773503
vn 0 0 0.5773503
vn 0 0 0.5773503
vn 0 0 0.5773503
vn -0.5773503 0 0
vn -0.5773503 0 0
vn -0.5773503 0 0
vn -0.5773503 0 0
vn 0 0 -0.5773503
vn 0 0 -0.5773503
vn 0 0 -0.5773503
vn 0 0 -0.5773503
vn 0.5773503 0 0
vn 0.5773503 0 0
vn 0.5773503 0 0
vn 0.5773503 0 0
vn 2.294168E-05 0.5773503 2.215703E-06
vn 1.147084E-05 0.5773503 1.107852E-06
vn 1.147084E-05 0.5773503 1.107852E-06
vn 0 0.5773503 0
vn 0 -0.5773503 0
vn 0 -0.5773503 0
vn 0 -0.5773503 0
vn 0 -0.5773503 0
vt 0.341242 -0.5851665
vt 0.192325 -0.5851665
vt 0.341242 1.583414
vt 0.192325 1.58342
vt 1.262237 -0.5851665
vt -0.2796685 -0.5851665
vt 1.262237 1.58342
vt -0.2796685 1.58342
vt 0.341242 -0.5851665
vt 0.192325 -0.5851665
vt 0.341242 1.58342
vt 0.192325 1.58342
vt 1.262237 -0.5851665
vt -0.2796685 -0.5851665
vt 1.262237 1.58342
vt -0.2796685 1.583414
vt 0.192325 1.16908
vt 0.341242 1.16908
vt 0.192325 -0.3728249
vt 0.341242 -0.3728249
vt 0.341242 -0.3728249
vt 0.192325 -0.3728249
vt 0.341242 1.16908
vt 0.192325 1.16908
usemtl Metal01
f 21/21/21 20/20/20 19/19/19
f 21/21/21 22/22/22 20/20/20
f 25/25/25 24/24/24 23/23/23
f 25/25/25 26/26/26 24/24/24
f 29/29/29 28/28/28 27/27/27
f 29/29/29 30/30/30 28/28/28
f 33/33/33 32/32/32 31/31/31
f 33/33/33 34/34/34 32/32/32
f 37/37/37 36/36/36 35/35/35
f 37/37/37 38/38/38 36/36/36
f 41/41/41 40/40/40 39/39/39
f 41/41/41 42/42/42 40/40/40
g Elevator_mesh
v -42.0305 -33.81701 -79.98001
v -44.3355 -33.81701 -79.98001
v -42.0305 -30.93401 -79.98001
v -44.3355 -30.93401 -79.98001
v -44.3835 -33.87701 -77.83301
v -44.3835 -33.87701 -80.03101
v -44.3835 -30.87401 -77.83301
v -44.3835 -30.87401 -80.03101
v -44.3835 -33.87701 -80.03101
v -41.9825 -33.87701 -80.03101
v -44.3835 -30.87401 -80.03101
v -41.9825 -30.87401 -80.03101
v -41.9825 -33.87701 -80.03101
v -41.9825 -33.87701 -77.83301
v -41.9825 -30.87401 -80.03101
v -41.9825 -30.87401 -77.83301
v -41.9825 -30.87401 -77.83301
v -44.3835 -30.87401 -77.83301
v -41.9825 -30.87401 -80.03101
v -44.3835 -30.87401 -80.03101
v -41.9825 -33.87701 -80.03101
v -44.3835 -33.87701 -80.03101
v -41.9825 -33.87701 -77.83301
v -44.3835 -33.87701 -77.83301
v -41.9825 -33.87701 -77.83301
v -44.3835 -33.87701 -77.83301
v -42.03052 -33.81695 -77.83291
v -44.33548 -33.81695 -77.83291
v -41.9825 -30.87401 -77.83301
v -41.9825 -33.87701 -77.83301
v -42.03052 -30.93407 -77.83291
v -42.03052 -33.81695 -77.83291
v -44.3835 -33.87701 -77.83301
v -44.3835 -30.87401 -77.83301
v -44.33548 -33.81695 -77.83291
v -44.33548 -30.93407 -77.83291
v -44.3835 -30.87401 -77.83301
v -41.9825 -30.87401 -77.83301
v -44.33548 -30.93407 -77.83291
v -42.03052 -30.93407 -77.83291
v -42.03052 -30.93407 -77.83291
v -42.03052 -33.81695 -77.83291
v -42.0305 -30.93401 -79.98001
v -42.0305 -33.81701 -79.98001
v -44.33548 -33.81695 -77.83291
v -44.33548 -30.93407 -77.83291
v -44.3355 -33.81701 -79.98001
v -44.3355 -30.93401 -79.98001
v -44.33548 -30.93407 -77.83291
v -42.03052 -30.93407 -77.83291
v -44.3355 -30.93401 -79.98001
v -42.0305 -30.93401 -79.98001
v -42.03052 -33.81695 -77.83291
v -44.33548 -33.81695 -77.83291
v -42.0305 -33.81701 -79.98001
v -44.3355 -33.81701 -79.98001
vn 0 0 0.5773503
vn 0 0 0.5773503
vn 0 0 0.5773503
vn 0 0 0.5773503
vn -0.5773503 0 0
vn -0.5773503 0 0
vn -0.5773503 0 0
vn -0.5773503 0 0
vn 0 0 -0.5773503
vn 0 0 -0.5773503
vn 0 0 -0.5773503
vn 0 0 -0.5773503
vn 0.5773503 0 0
vn 0.5773503 0 0
vn 0.5773503 0 0
vn 0.5773503 0 0
vn 0 0.5773503 0
vn 0 0.5773503 0
vn 0 0.5773503 0
vn 0 0.5773503 0
vn 0 -0.5773503 0
vn 0 -0.5773503 0
vn 0 -0.5773503 0
vn 0 -0.5773503 0
vn 0 -0.000961447 0.5773495
vn 0 -0.0009614471 0.5773495
vn 0 -0.0009614471 0.5773495
vn 0 -0.000961447 0.5773494
vn 0.001202509 0 0.577349
vn 0.001202509 0 0.577349
vn 0.001202509 0 0.577349
vn 0.001202509 0 0.577349
vn -0.001202509 0 0.577349
vn -0.001202509 0 0.577349
vn -0.001202509 0 0.577349
vn -0.001202509 0 0.577349
vn 0 0.000961447 0.5773495
vn 0 0.0009614471 0.5773495
vn 0 0.0009614471 0.5773495
vn 0 0.000961447 0.5773494
vn -0.5773503 0 -5.289084E-06
vn -0.5773503 0 -5.289084E-06
vn -0.5773503 0 -5.289084E-06
vn -0.5773503 0 -5.289084E-06
vn 0.5773503 0 -5.289084E-06
vn 0.5773503 0 -5.289084E-06
vn 0.5773503 0 -5.289084E-06
vn 0.5773503 0 -5.289084E-06
vn 0 -0.5773503 -1.628397E-05
vn 0 -0.5773502 -1.628397E-05
vn 0 -0.5773502 -1.628397E-05
vn 0 -0.5773503 -1.628397E-05
vn 0 0.5773503 -1.577109E-05
vn 0 0.5773502 -1.577109E-05
vn 0 0.5773502 -1.577109E-05
vn 0 0.5773503 -1.577109E-05
vt 2.305 0
vt 0 0
vt 2.305 2.882999
vt 0 2.882999
vt 2.197998 0
vt 0 0
vt 2.197998 3.003
vt 0 3.003
vt 2.401001 0
vt 0 0
vt 2.401001 3.003
vt 0 3.003
vt 2.197998 0
vt 0 0
vt 2.197998 3.003
vt 0 3.003
vt 0 2.197998
vt 2.401001 2.197998
vt 0 0
vt 2.401001 0
vt 2.401001 0
vt 0 0
vt 2.401001 2.197998
vt 0 2.197998
vt 2.401001 0
vt 0 0
vt 2.352981 0.06006011
vt 0.04802001 0.06006011
vt 0.04802012 3.003
vt 0.04802012 0
vt 0 2.94294
vt 0 0.06006002
vt 0 0
vt 0 3.003
vt 0.04802012 0.06006002
vt 0.04802012 2.94294
vt 0 0.06006026
vt 2.401001 0.06006026
vt 0.04802001 0
vt 2.352981 0
vt 2.147103 2.882939
vt 2.147103 5.865097E-05
vt 1.192093E-07 2.882999
vt 1.192093E-07 0
vt 0 5.865097E-05
vt 0 2.882939
vt 2.147103 0
vt 2.147103 2.882999
vt 1.966953E-05 2.147103
vt 2.304981 2.147103
vt 0 0
vt 2.305 0
vt -0.4095842 2.666194
vt 1.426902 2.666194
vt -0.4095999 0.2232559
vt 1.426918 0.2232559
usemtl Metal02
f 45/45/45 44/44/44 43/43/43
f 45/45/45 46/46/46 44/44/44
f 49/49/49 48/48/48 47/47/47
f 49/49/49 50/50/50 48/48/48
f 53/53/53 52/52/52 51/51/51
f 53/53/53 54/54/54 52/52/52
f 57/57/57 56/56/56 55/55/55
f 57/57/57 58/58/58 56/56/56
f 61/61/61 60/60/60 59/59/59
f 61/61/61 62/62/62 60/60/60
f 65/65/65 64/64/64 63/63/63
f 65/65/65 66/66/66 64/64/64
f 69/69/69 68/68/68 67/67/67
f 69/69/69 70/70/70 68/68/68
f 73/73/73 72/72/72 71/71/71
f 73/73/73 74/74/74 72/72/72
f 77/77/77 76/76/76 75/75/75
f 77/77/77 78/78/78 76/76/76
f 81/81/81 80/80/80 79/79/79
f 81/81/81 82/82/82 80/80/80
f 85/85/85 84/84/84 83/83/83
f 85/85/85 86/86/86 84/84/84
f 89/89/89 88/88/88 87/87/87
f 89/89/89 90/90/90 88/88/88
f 93/93/93 92/92/92 91/91/91
f 93/93/93 94/94/94 92/92/92
usemtl GroundStone
f 97/97/97 96/96/96 95/95/95
f 97/97/97 98/98/98 96/96/96
g DOWN
v -44.2555 -32.228 -78.665
v -44.30851 -32.228 -78.665
v -44.2555 -32.37801 -78.59
v -44.30851 -32.378 -78.59
v -44.30851 -32.228 -78.665
v -44.30851 -32.228 -78.515
v -44.30851 -32.378 -78.59
v -44.30851 -32.228 -78.515
v -44.2555 -32.228 -78.515
v -44.30851 -32.378 -78.59
v -44.2555 -32.37801 -78.59
v -44.2555 -32.228 -78.515
v -44.2555 -32.228 -78.665
v -44.2555 -32.37801 -78.59
v -44.2555 -32.228 -78.515
v -44.30851 -32.228 -78.515
v -44.2555 -32.228 -78.665
v -44.30851 -32.228 -78.665
vn 0 -0.2581994 -0.5163975
vn -5.595643E-06 -0.258201 -0.5163967
vn -5.595643E-06 -0.258201 -0.5163967
vn -1.119135E-05 -0.2582026 -0.5163959
vn -0.5773503 0 0
vn -0.5773503 0 0
vn -0.5773503 0 0
vn 1.480862E-05 -0.2582057 0.5163944
vn 1.899379E-06 -0.258202 0.5163962
vn 1.899379E-06 -0.258202 0.5163962
vn -1.100975E-05 -0.2581984 0.516398
vn 0.5773503 0 0
vn 0.5773503 0 0
vn 0.5773503 0 0
vn 0 0.5773503 1.881246E-07
vn 0 0.5773503 1.881246E-07
vn 0 0.5773503 1.881246E-07
vn 0 0.5773503 1.881246E-07
vt 0.0530014 -7.450581E-09
vt 0 -7.450581E-09
vt 0.0530014 0.1677052
vt 0 0.1677032
vt 0.1500015 0
vt 0 0
vt 0.07500127 0.1499977
vt 0.05300356 0
vt 2.151355E-06 0
vt 0.0530014 0.1677036
vt 0 0.167705
vt 0.15 0
vt 0 0
vt 0.07500025 0.15
vt 0.0530014 1.519918E-06
vt 0 0
vt 0.0530014 0.1500015
vt 0 0.1500015
usemtl ButtonRed
f 101/101/101 100/100/100 99/99/99
f 101/101/101 102/102/102 100/100/100
f 105/105/105 104/104/104 103/103/103
f 108/108/108 107/107/107 106/106/106
f 108/108/108 109/109/109 107/107/107
f 112/112/112 111/111/111 110/110/110
f 115/115/115 114/114/114 113/113/113
f 115/115/115 116/116/116 114/114/114
